<svg xmlns="http://www.w3.org/2000/svg" width="128" height="128" viewBox="0 0 16 16"><rect width="100%" height="100%"/><path fill="#FFF" d="M7.25 8.945q.08 0 .14.06l.37.4q-.31.38-.76.58-.45.21-1.08.21-.56 0-1.01-.2-.45-.19-.77-.53-.32-.35-.49-.82-.17-.48-.17-1.04 0-.57.18-1.05.18-.47.51-.81.33-.35.79-.54t1.02-.19q.55 0 .98.18.43.19.73.48l-.32.44q-.02.04-.07.07-.04.03-.12.03-.05 0-.11-.03l-.12-.07q-.07-.04-.15-.1-.09-.05-.21-.09-.11-.05-.26-.08-.16-.03-.36-.03-.33 0-.62.13-.28.12-.48.35-.2.22-.32.56-.11.33-.11.75 0 .43.12.76t.33.56.49.35.6.12q.19 0 .35-.02.15-.02.28-.07t.25-.12.23-.17q.04-.04.08-.05.04-.02.08-.02m5.27.36-2.06 2.05-2.05-2.05.32-.3q.09-.09.18-.07t.18.1l.72.74q.08.07.14.14.07.07.12.14v-3.2q0-.26.02-.51t.05-.48l-.15.17q-.07.09-.18.19l-.73.74q-.08.09-.17.1-.1.02-.19-.07l-.31-.3 2.06-2.05 2.05 2.05-.31.3q-.09.09-.19.07-.09-.02-.18-.1l-.72-.74q-.1-.1-.18-.19l-.15-.17q.03.23.05.48t.02.51v3.2q.05-.06.12-.13.06-.07.14-.15l.73-.74q.08-.09.17-.11.1-.01.19.08z"/></svg> 